# xmcd CD database file
#
# Track frame offsets:
#	150
#	23196
#	45177
#	62864
#	91268
#	114568
#	134707
#	161031
#	178034
#	212004
#
# Disc length: 3201 seconds
#
# Revision: 2
# Processed by: cddbd v1.5.2PL0 Copyright (c) Steve Scherf et al.
# Submitted via: CDex 1.70beta3
#
DISCID=880c7f0a
DTITLE=さかいゆう - 4YU (Disc-2:さかいゆう COVER COLLECTION)
DYEAR=1900
DGENRE=blues
TTITLE0=つつみ込むように…
TTITLE1=今夜はブギーバック (NICE VOCAL)
TTITLE2=ACROSS THE UNIVERSE
TTITLE3=One more time, One more chance　
TTITLE4=遠く遠く
TTITLE5=The Stranger
TTITLE6=接吻
TTITLE7=よさこい鳴子踊り
TTITLE8=What's Going On -LIVE at Billboard Live-
TTITLE9=PAPER DOLL -LIVE at Billboard Live-
EXTD=
EXTT0=
EXTT1=
EXTT2=
EXTT3=
EXTT4=
EXTT5=
EXTT6=
EXTT7=
EXTT8=
EXTT9=
PLAYORDER=
